<svg xmlns="http://www.w3.org/2000/svg" xmlns:xlink="http://www.w3.org/1999/xlink" width="500" zoomAndPan="magnify" viewBox="0 0 375 374.999991" height="500" preserveAspectRatio="xMidYMid meet" version="1.0"><defs><clipPath id="a4a3c342f5"><path d="M 37.5 152.457031 L 83.484375 152.457031 L 83.484375 234.1875 L 37.5 234.1875 Z M 37.5 152.457031 " clip-rule="nonzero"/></clipPath><clipPath id="324a0948b1"><path d="M 54.75 152.457031 L 66.234375 152.457031 C 70.808594 152.457031 75.195312 154.277344 78.429688 157.511719 C 81.664062 160.746094 83.484375 165.132812 83.484375 169.707031 L 83.484375 216.859375 C 83.484375 221.433594 81.664062 225.824219 78.429688 229.058594 C 75.195312 232.292969 70.808594 234.109375 66.234375 234.109375 L 54.75 234.109375 C 50.175781 234.109375 45.789062 232.292969 42.550781 229.058594 C 39.316406 225.824219 37.5 221.433594 37.5 216.859375 L 37.5 169.707031 C 37.5 165.132812 39.316406 160.746094 42.550781 157.511719 C 45.789062 154.277344 50.175781 152.457031 54.75 152.457031 Z M 54.75 152.457031 " clip-rule="nonzero"/></clipPath></defs><path fill="#f4183c" d="M 187.5 375 C 291.070312 375 375 291.070312 375 187.5 C 375 83.929688 291.070312 0 187.5 0 C 83.929688 0 0 83.929688 0 187.5 C 0 291.070312 83.929688 375 187.5 375 Z M 106.695312 264.730469 L 116.070312 244.195312 C 117.410156 241.519531 119.195312 239.730469 121.875 238.839844 C 122.769531 238.394531 124.105469 238.394531 125 238.394531 C 126.785156 238.394531 128.125 238.839844 129.910156 239.730469 C 143.75 247.320312 162.945312 251.785156 180.355469 251.785156 C 200.894531 251.785156 216.070312 243.304688 216.070312 231.695312 C 216.070312 224.105469 211.605469 215.179688 179.910156 204.910156 C 145.089844 194.195312 109.820312 178.125 109.820312 142.410156 C 109.820312 115.179688 129.464844 94.195312 162.5 85.714844 L 167.410156 84.375 L 167.410156 62.054688 C 167.410156 56.695312 171.875 52.230469 177.230469 52.230469 L 200.894531 52.230469 C 206.25 52.230469 210.714844 56.695312 210.714844 62.054688 L 210.714844 82.144531 L 216.519531 83.035156 C 230.804688 84.820312 243.304688 88.394531 254.464844 93.75 C 256.695312 95.089844 258.929688 96.875 259.820312 99.554688 C 260.714844 102.230469 260.714844 104.910156 259.375 107.144531 L 250 126.785156 C 248.214844 130.355469 244.644531 132.589844 241.070312 132.589844 C 239.730469 132.589844 238.394531 132.144531 237.054688 131.695312 C 230.804688 129.019531 216.070312 122.320312 192.855469 122.320312 C 171.875 122.320312 162.5 130.355469 162.5 138.839844 C 162.5 147.769531 172.320312 154.019531 203.125 164.285156 C 235.714844 175 269.195312 191.070312 269.195312 229.910156 C 269.195312 250.894531 254.464844 279.019531 213.839844 289.285156 L 208.480469 290.179688 L 208.480469 313.394531 C 208.480469 318.75 204.019531 323.214844 198.660156 323.214844 L 174.554688 323.214844 C 169.195312 323.214844 164.730469 318.75 164.730469 313.394531 L 164.730469 291.964844 L 158.929688 291.519531 C 140.625 289.285156 123.214844 284.375 111.605469 277.679688 C 106.25 275 104.464844 269.644531 106.695312 264.730469 Z M 106.695312 264.730469 " fill-opacity="1" fill-rule="nonzero"/><g clip-path="url(#a4a3c342f5)"><g clip-path="url(#324a0948b1)"><path fill="#f4183c" d="M 37.5 152.457031 L 83.484375 152.457031 L 83.484375 234.1875 L 37.5 234.1875 Z M 37.5 152.457031 " fill-opacity="1" fill-rule="nonzero"/></g></g></svg>